<?xml version="1.0" encoding="utf-8"?>
<!-- Generator: Adobe Illustrator 24.0.3, SVG Export Plug-In . SVG Version: 6.00 Build 0)  -->
<svg version="1.1" id="Layer_1" xmlns="http://www.w3.org/2000/svg" xmlns:xlink="http://www.w3.org/1999/xlink" x="0px" y="0px"
	 viewBox="0 0 256 80" style="enable-background:new 0 0 256 80;" xml:space="preserve">
<style type="text/css">
	.st0{fill:#FED91F;}
	.st1{fill:#8DCFD5;}
	.st2{fill:#F18C65;}
	.st3{fill:#FDDF41;}
</style>
<g id="Group_1324" transform="translate(-76 -936.29)">
	<g id="Path_831">
		<path class="st0" d="M150.62,978.96H97.49c-2.21,0-4-1.79-4-4c0-2.21,1.79-4,4-4h53.13c2.21,0,4,1.79,4,4
			C154.62,977.17,152.83,978.96,150.62,978.96z"/>
	</g>
	<g id="Path_832">
		<path class="st1" d="M150.62,962.04H97.49c-2.21,0-4-1.79-4-4s1.79-4,4-4h53.13c2.21,0,4,1.79,4,4S152.83,962.04,150.62,962.04z"
			/>
	</g>
	<g id="Line_361">
		<path class="st2" d="M150.62,996.32H97.49c-2.21,0-4-1.79-4-4s1.79-4,4-4h53.13c2.21,0,4,1.79,4,4S152.83,996.32,150.62,996.32z"
			/>
	</g>
</g>
<g id="Group_1322" transform="translate(-76 -936.29)">
	<g id="Group_1321" transform="translate(241.859 940.29)">
		<g id="Path_825">
			<path class="st1" d="M50.45,45.61c2.79,0,5.06,2.27,5.06,5.06c0,2.79-2.27,5.06-5.06,5.06c-2.79,0-5.06-2.27-5.06-5.06l0,0
				C45.39,47.88,47.66,45.61,50.45,45.61z"/>
		</g>
		<g id="Path_326">
			<path class="st0" d="M54.2,45.88H23.7c-1.77,0-3.33-1.16-3.83-2.86l-6.21-20.9c-0.36-1.21-0.13-2.52,0.63-3.53
				c0.75-1.01,1.94-1.61,3.21-1.61h31.63c2.21,0,4,1.79,4,4s-1.79,4-4,4H22.85l3.83,12.9h24.65l7.56-22.15
				c0.55-1.62,2.07-2.71,3.79-2.71h7.78c2.21,0,4,1.79,4,4s-1.79,4-4,4h-4.92l-7.56,22.15C57.43,44.79,55.91,45.88,54.2,45.88z"/>
		</g>
		<g id="Path_781">
			<path class="st2" d="M27.14,45.61c2.79,0,5.06,2.27,5.06,5.06c0,2.79-2.27,5.06-5.06,5.06s-5.06-2.27-5.06-5.06l0,0
				C22.08,47.88,24.35,45.61,27.14,45.61z"/>
		</g>
	</g>
</g>
<g>
	<path id="Path_833" class="st1" d="M103.01,59.94l53.26-0.41c1.85-0.01,3.34-1.51,3.33-3.36c0,0,0,0,0-0.01l-0.27-34.4
		c0-1.85-1.44-3.37-3.29-3.46c-1.85-0.05-3.39,1.41-3.44,3.26c0,0.03,0,0.07,0,0.1l0.23,29.56c0.01,0.9-0.72,1.64-1.62,1.64
		c0,0-0.01,0-0.01,0l-43.24,0.34c-0.9,0.01-1.64-0.71-1.65-1.61c0,0,0-0.01,0-0.01l-0.23-29.42c0-1.85-1.44-3.37-3.29-3.46
		c-1.85-0.05-3.39,1.41-3.44,3.26c0,0.03,0,0.07,0,0.1l0.27,34.54c0.01,1.85,1.53,3.34,3.38,3.32
		C103.01,59.94,103.01,59.94,103.01,59.94z"/>
	<g id="Group_1320" transform="translate(157 937)">
		<path id="Path_384" class="st3" d="M-29.51-895.22l-26.53-17.82c-1.42-1.04-1.83-2.98-0.93-4.5c0.56-0.99,1.63-1.58,2.77-1.52
			l53.17-0.41C1-919,2-918,2.15-916.81c0.17,1.32-0.31,2.63-1.37,3.43l-25.3,18.12C-26-894-28-894-29.51-895.22z M-43.92-912.33
			l16.67,12.1l16.13-12.36L-43.92-912.33z"/>
		<path id="Path_385" class="st2" d="M-27.24-893.37c0.72,0.07,1.44-0.09,2.05-0.46l26.15-19.7c1.46-1.07,1.77-3.11,0.7-4.57
			c-0.02-0.02-0.03-0.04-0.05-0.06c-1.13-1.46-3.22-1.74-4.71-0.64l-22.83,17.23c-0.8,0.59-1.89,0.6-2.71,0.03l-23.54-16.83
			c-1.5-1.09-3.59-0.83-4.77,0.6c-1.1,1.43-0.84,3.49,0.6,4.6c0.04,0.03,0.08,0.06,0.12,0.09l27.06,19.31
			C-28.59-893.43-27.91-893.28-27.24-893.37z"/>
	</g>
</g>
</svg>
