<?xml version="1.0" encoding="utf-8"?>
<!-- Generator: Adobe Illustrator 24.0.3, SVG Export Plug-In . SVG Version: 6.00 Build 0)  -->
<svg version="1.1" id="Layer_1" xmlns="http://www.w3.org/2000/svg" xmlns:xlink="http://www.w3.org/1999/xlink" x="0px" y="0px"
	 viewBox="0 0 236 57" style="enable-background:new 0 0 236 57;" xml:space="preserve">
<style type="text/css">
	.st0{fill:#FED91F;}
	.st1{fill:#8DCFD5;}
	.st2{fill:#F18C65;}
	.st3{fill:#FDDF41;}
</style>
<g id="Group_1324" transform="translate(-76 -936.29)">
	<g id="Path_831">
		<path class="st0" d="M139.6,968.1H86.5c-2.2,0-4-1.8-4-4s1.8-4,4-4h53.1c2.2,0,4,1.8,4,4C143.6,966.3,141.8,968.1,139.6,968.1z"/>
	</g>
	<g id="Path_832">
		<path class="st1" d="M139.6,951.2H86.5c-2.2,0-4-1.8-4-4s1.8-4,4-4h53.1c2.2,0,4,1.8,4,4S141.8,951.2,139.6,951.2z"/>
	</g>
	<g id="Line_361">
		<path class="st2" d="M139.6,985.4H86.5c-2.2,0-4-1.8-4-4s1.8-4,4-4h53.1c2.2,0,4,1.8,4,4S141.8,985.4,139.6,985.4z"/>
	</g>
</g>
<g id="Group_1322" transform="translate(-76 -936.29)">
	<g id="Group_1321" transform="translate(241.859 940.29)">
		<g id="Path_825">
			<path class="st1" d="M39.5,34.7c2.8,0,5.1,2.3,5.1,5.1s-2.3,5.1-5.1,5.1s-5.1-2.3-5.1-5.1l0,0C34.4,37,36.7,34.7,39.5,34.7z"/>
		</g>
		<g id="Path_326">
			<path class="st0" d="M43.2,35H12.7c-1.8,0-3.3-1.2-3.8-2.9L2.7,11.2C2.3,10,2.5,8.7,3.3,7.7c0.8-1,1.9-1.6,3.2-1.6h31.6
				c2.2,0,4,1.8,4,4s-1.8,4-4,4H11.9L15.7,27h24.7l7.6-22.1c0.5-1.6,2.1-2.7,3.8-2.7h7.8c2.2,0,4,1.8,4,4s-1.8,4-4,4h-4.9L47,32.3
				C46.4,33.9,44.9,35,43.2,35z"/>
		</g>
		<g id="Path_781">
			<path class="st2" d="M16.1,34.7c2.8,0,5.1,2.3,5.1,5.1s-2.3,5.1-5.1,5.1s-5.1-2.3-5.1-5.1l0,0C11.1,37,13.4,34.7,16.1,34.7z"/>
		</g>
	</g>
</g>
<g>
	<path id="Path_833" class="st1" d="M92,49.1l53.3-0.4c1.9,0,3.3-1.5,3.3-3.4c0,0,0,0,0,0l-0.3-34.4c0-1.9-1.4-3.4-3.3-3.5
		c-1.9,0-3.4,1.4-3.4,3.3c0,0,0,0.1,0,0.1l0.2,29.6c0,0.9-0.7,1.6-1.6,1.6h0L97,42.3c-0.9,0-1.6-0.7-1.7-1.6v0l-0.2-29.4
		c0-1.9-1.4-3.4-3.3-3.5c-1.8,0-3.4,1.4-3.4,3.3c0,0,0,0.1,0,0.1l0.3,34.5C88.6,47.6,90.1,49.1,92,49.1C92,49.1,92,49.1,92,49.1z"/>
	<g id="Group_1320" transform="translate(157 937)">
		<path id="Path_384" class="st3" d="M-40.5-906.1L-67-923.9c-1.4-1-1.8-3-0.9-4.5c0.6-1,1.6-1.6,2.8-1.5l53.2-0.4
			c2,0.5,3,1.5,3.2,2.7c0.2,1.3-0.3,2.6-1.4,3.4l-25.3,18.1C-37-904.9-39-904.9-40.5-906.1z M-54.9-923.2l16.7,12.1l16.1-12.4
			L-54.9-923.2z"/>
		<path id="Path_385" class="st2" d="M-38.2-904.3c0.7,0.1,1.4-0.1,2-0.5l26.2-19.7c1.5-1.1,1.8-3.1,0.7-4.6c0,0,0,0-0.1-0.1
			c-1.1-1.5-3.2-1.7-4.7-0.6l-22.8,17.2c-0.8,0.6-1.9,0.6-2.7,0l-23.5-16.8c-1.5-1.1-3.6-0.8-4.8,0.6c-1.1,1.4-0.8,3.5,0.6,4.6
			c0,0,0.1,0.1,0.1,0.1l27.1,19.3C-39.6-904.3-38.9-904.2-38.2-904.3z"/>
	</g>
</g>
</svg>
