<?xml version="1.0" encoding="utf-8"?>
<!-- Generator: Adobe Illustrator 24.0.3, SVG Export Plug-In . SVG Version: 6.00 Build 0)  -->
<svg version="1.1" id="Layer_1" xmlns="http://www.w3.org/2000/svg" xmlns:xlink="http://www.w3.org/1999/xlink" x="0px" y="0px"
	 viewBox="0 0 215.77 84.77" style="enable-background:new 0 0 215.77 84.77;" xml:space="preserve">
<style type="text/css">
	.st0{fill:#F18B64;stroke:#F18B64;stroke-miterlimit:10;}
	.st1{fill:#8ECFD6;}
	.st2{fill:#FED91E;}
	.st3{fill:#8C8C8D;}
</style>
<title>Untitled-1</title>
<g id="Group_1325">
	<path id="Path_834" class="st0" d="M182.71,6.84c-2.92,0.73-5.25,2.95-6.13,5.83c-0.85,2.22-8.5,23-2.09,36.05
		c2.21,4.66,6.35,8.13,11.33,9.49c2.93,1.05,6.08,1.37,9.16,0.92l0.8-0.14c3.4-0.72,8.22-3.09,10.52-6.15
		c8.7-12.25,3.8-26.65-14.48-42.84C188.16,6.24,184.52,6.43,182.71,6.84z"/>
	<path id="Path_835" class="st1" d="M185,15c-2.17,0.54-3.89,2.18-4.54,4.32c-0.63,1.64-6.3,17.06-1.55,26.7
		c1.65,3.44,4.71,6,8.39,7c2.17,0.78,4.51,1.01,6.79,0.68l0.6-0.11c2.52-0.53,6.09-2.29,7.79-4.56c6.43-9.07,2.82-19.74-10.72-31.7
		C189,14.59,186.31,14.73,185,15z"/>
	<path id="Path_836" class="st2" d="M187,22.64c-1.39,0.35-2.49,1.4-2.91,2.77c-0.4,1.05-4,10.94-1,17.13
		c1.05,2.21,3.02,3.86,5.38,4.51c1.39,0.5,2.89,0.65,4.35,0.44l0.38-0.07c1.93-0.42,3.68-1.45,5-2.92
		c4.12-5.82,1.81-12.66-6.88-20.33C190.27,22.91,188.61,22.32,187,22.64z"/>
	<path id="Path_837" class="st3" d="M59,16.3c-0.67-3.13-2.8-6.32-6.39-6.19c-3.76,0.14-5.48,3.53-6.71,6.57
		c-2.04,5.36-3.71,10.85-5,16.44c-2.23,9-4,18.12-6.94,26.89c-1.13-3.19-1.89-6.61-2.81-9.43c-1.77-5.44-3.54-10.88-5.32-16.33
		c-1.83-5.39-3.21-11.17-5.52-16.36C19,15,16.54,12,13,12.48S8.07,16,7.62,19.1C6.8,24.81,6.77,30.74,6.45,36.49
		c-0.67,11.91-1.1,23.82-1.3,35.74c-0.1,5.65,8.67,5.65,8.78,0c0.16-8.76,0.43-17.52,0.82-26.28c0.19-4.21,0.41-8.41,0.66-12.61
		c0-0.27,0.05-1.35,0.08-2.75c0.35,1.36,0.64,2.46,0.79,2.94l5,15.31c2.56,7.93,4.25,18.16,10.26,24.33
		c1.8,1.85,5.73,1.72,6.89-0.89c3.94-8.84,6.4-18.05,8.6-27.45c1.1-4.69,2.16-9.38,3.43-14c0.1-0.36,0.22-0.84,0.35-1.41
		c0,0.4,0,0.8,0,1.21c0.17,4.72,0.34,9.44,0.5,14.15l1,28.31c0.2,5.63,9,5.66,8.78,0c-0.46-13.06-0.92-26.12-1.37-39.19
		C59.56,28.2,60.15,21.86,59,16.3z"/>
	<path id="Path_838" class="st3" d="M70.34,22.84C69.48,31.53,69.36,40.29,70,49c0.41,5.6,9.19,5.64,8.78,0
		c-0.64-8.71-0.53-17.45,0.32-26.14C79.66,17.23,70.88,17.26,70.34,22.84z"/>
	<path id="Path_839" class="st3" d="M115.87,43.4c-6.54-1.95-14-0.1-18.48-6.49s-0.94-15.72,6.91-16.8
		c9.54-1.32,12.24,8.21,13.78,15.56c1.16,5.52,9.62,3.19,8.46-2.33c-2.48-11.83-8.9-23.41-22.84-22
		C92.07,12.5,84.09,24.76,87.3,35.93c1.59,5.36,5.26,9.86,10.19,12.49c5.41,2.88,13.33,0.89,18,4.48c2.9,2.2,3.57,6.82,3.24,10.24
		c-0.5,5.08-4.28,7.58-8.91,8.51c-7,1.4-16.29-2.71-13.86-11.16c1.57-5.44-6.9-7.76-8.46-2.33c-3.5,12.16,6.81,22.32,18.63,22.58
		C120.54,81.06,130,70,126.9,55.89C125.59,50,121.79,45.17,115.87,43.4z"/>
	<path id="Path_840" class="st3" d="M151.53,23.91c-0.17,3.87,0.44,25.43-6.7,20.09c-2.52-1.88-3.48-7.34-4.06-10.22
		c-0.69-3.83-0.82-7.74-0.38-11.61c0.53-5.62-8.25-5.58-8.78,0c-0.94,9.95,1,29.89,13.87,31.7c15.75,2.22,14.4-20.4,14.81-30
		C160.54,18.27,151.77,18.28,151.53,23.91z"/>
	<path id="Path_841" class="st3" d="M74.92,6.47c-5.65,0-5.66,8.78,0,8.78S80.58,6.47,74.92,6.47z"/>
</g>
</svg>
