<?xml version="1.0" encoding="utf-8"?>
<!-- Generator: Adobe Illustrator 24.0.3, SVG Export Plug-In . SVG Version: 6.00 Build 0)  -->
<svg version="1.1" id="Layer_1" xmlns="http://www.w3.org/2000/svg" xmlns:xlink="http://www.w3.org/1999/xlink" x="0px" y="0px"
	 viewBox="0 0 87.37 154.36" style="enable-background:new 0 0 87.37 154.36;" xml:space="preserve">
<style type="text/css">
	.st0{fill:#FFFFFF;}
</style>
<title>Untitled-1</title>
<path class="st0" d="M56.35,8.56c1.03,1.12,2.19,2.13,3.44,3c3.17,1.95,7.09,2.2,10.48,0.67c1.38-0.67,2.93-0.91,4.45-0.69
	c3.3,0.74,5.81,3.26,5.82,6.75c0,3.07-1.38,5.51-3.28,7.83c-2.26,2.78-4.16,5.33-2.7,9.08c0.47,1.14,1.15,2.19,2,3.09
	c1.95,2.15,4.27,4.29,4.61,7.34c0.27,2.53-0.61,5.47-2.86,6.88c-4.17,2.6-9,3.06-13.75,3.37c-2.53,0.17-8.65,1.5-8.67,4.76
	c0,4.42,3.41,6.27,6.58,8.41c2.78,1.88,5.33,4.46,2.92,7.79c-3.48,4.8-9.31,2.29-14.11,1.79C48,78.25,40.7,79,42.17,84
	c1.17,3.92,6.45,3.47,7.77,7.24c1.19,3.39-0.09,6.88-2.25,9.56c-3.43,4.25-10.84,2.12-14,6.77c-1.25,1.87-0.9,4.48,0,6.42
	c0.8,1.67,2.37,2.52,3,4.34c1.35,4.07,0.78,9.33-2,12.71c-3.1,3.82-8.23,5.47-12.76,6.85c-3.89,1.2-7.64,2.45-8.22,7
	c0,1.25,0.13,2.49,0.37,3.72c-2.37-5-5.66-11.09-3.36-16.7c0.68-1.66,1.67-3.18,2.92-4.48c1.11-1.17,2.71-2.4,3-4.07
	c0.57-2.91-0.06-7.11-2.11-9.38c-1.18-1.31-3-1.95-4.4-3c-2.36-1.76-3.78-4.43-2.9-7.38c0.66-2.24,3-4,4.89-5.17
	C15,96.65,20,93,18.07,89.13c-0.46-0.84-1.16-1.54-2-2c-1.72-1.14-3.23-2-4.26-3.89c-1.58-3.09-0.54-6.87,2.4-8.71
	c1.4-0.83,2.9-1.46,4.47-1.88c2-0.59,4-0.11,6-0.25C29.36,72.07,35.33,71,35,65.08c-0.18-3.79-3.5-6.24-4.72-9.74s1.15-6.63,4-8.29
	c4.22-2.48,9.72-2.16,14.48-2.45c2.06-0.13,4.42-0.29,6.26-1.31c3.56-2-1.2-5.7-0.34-8.6c0.64-2.17,3-2.8,4-4.66
	c2.39-4.39-4.47-4.37-6.13-6.35c-2.86-3.42,1.71-7.17,3.91-9.19c2.83-2.6-2.31-6.94-4.16-8.75C53.72,6.58,55.07,7.52,56.35,8.56z"/>
<path d="M55.29,9.62c1.62,1.73,3.56,3.14,5.71,4.15c2.14,0.86,4.48,1.1,6.75,0.7c2.33-0.4,4.69-2.08,7.09-1.39
	c1.7,0.44,3.12,1.62,3.85,3.22c1.82,4.47-2.4,8.14-4.55,11.47c-2.51,3.91-1.66,8.17,1.34,11.54c1.42,1.59,3.14,3.1,3.89,5.16
	c0.65,1.87,0.39,3.93-0.69,5.58c-1.21,1.76-3.8,2.57-5.75,3.11c-2.32,0.6-4.69,0.96-7.08,1.09c-3.15,0.24-6.6,0.64-9.24,2.56
	c-3,2.19-2.65,6.13-0.56,8.9c1.2,1.45,2.64,2.68,4.25,3.66c1.53,1,3.59,2.11,4.35,3.89s-1,3.64-2.46,4.36
	c-1.59,0.62-3.33,0.77-5,0.42c-3.21-0.42-6.25-1.28-9.51-0.88c-2.65,0.33-5.95,1.28-6.92,4.09c-1.17,3.41,1.51,6.14,4.27,7.59
	c1.19,0.63,2.69,1.23,3.35,2.49c1,2,0.52,4.57-0.48,6.47c-0.74,1.65-2.05,2.98-3.7,3.72c-1.63,0.57-3.3,1-5,1.3
	c-3.49,0.83-7.1,2.66-7.64,6.62c-0.26,2.07,0.2,4.17,1.32,5.94c0.52,0.79,1.2,1.44,1.78,2.18c0.61,0.87,1,1.87,1.13,2.93
	c0.85,4.15-0.6,8.44-3.79,11.23c-3.2,2.71-7.45,3.78-11.36,5c-3.46,1.1-6.93,2.75-8,6.51c-0.54,1.83-0.18,3.51,0.06,5.36l2.79-0.76
	c-1.76-3.71-3.94-7.65-3.93-11.87c0.04-2.11,0.71-4.15,1.94-5.87c1.1-1.61,2.72-2.76,3.84-4.35c2-2.86,1.3-7.46,0-10.44
	c-0.73-1.63-1.94-3-3.47-3.93c-1.6-1-3.35-1.78-4.4-3.45c-2.37-3.76,1.08-6.51,4-8.43c2.58-1.72,5.62-4,6.44-7.14
	c0.47-1.71,0.1-3.54-1-4.93c-1.16-1.41-2.95-2.07-4.31-3.26c-2.21-1.86-2.48-5.16-0.62-7.37c0.41-0.49,0.9-0.89,1.46-1.2
	c1.85-1.13,3.97-1.74,6.14-1.77c1.84,0.07,3.69,0.02,5.52-0.17c2.78-0.36,5.87-1.07,7.81-3.26c2.27-2.54,2.17-6.18,0.75-9.11
	s-5.12-6-3.64-9.55c1.59-3.77,6.21-4.95,9.88-5.3c3.95-0.38,8.18,0.08,12-1.05c1.4-0.38,3.1-1.2,3.71-2.8
	c0.38-1.32,0.23-2.74-0.43-3.95c-0.41-1-1.29-2.31-1.08-3.42c0.26-1.42,2.09-2.26,3-3.24c2-2.16,2.17-5.13-0.38-6.84
	c-1.01-0.61-2.08-1.09-3.2-1.46c-0.93-0.36-1.85-0.67-2.24-1.61c-0.55-1.33,0.57-2.8,1.39-3.74c1-1.13,2.26-2,3.21-3.16
	c2.11-2.55,0.08-5.66-1.72-7.68c-0.87-1-1.85-1.88-2.79-2.8L51.53,7c1.33,0.75,2.59,1.61,3.76,2.58c1.45,1.27,3.58-0.84,2.12-2.12
	c-1.36-1.13-2.83-2.13-4.37-3c-0.74-0.38-1.65-0.08-2.03,0.66c-0.28,0.55-0.2,1.21,0.21,1.68c1,0.92,1.93,1.81,2.8,2.8
	c0.66,0.74,1.95,2.1,1.75,3.2c-0.08,0.47-0.54,0.77-0.88,1.07c-0.57,0.52-1.14,1-1.68,1.6C52,16.61,51.05,18,50.43,19.54
	c-1,2.92,0.64,5.49,3.29,6.62c1.07,0.38,2.11,0.82,3.12,1.34c0.75,0.45,1,0.69,0.66,1.51c-0.59,1.4-2.19,2.12-3.13,3.24
	c-1.04,1.17-1.48,2.76-1.17,4.3c0.4,1.3,0.89,2.57,1.45,3.8c0.19,0.37,0.24,0.79,0.15,1.19c-0.3,0.62-1.44,0.87-2,1
	c-3.86,1.05-8.1,0.5-12.05,1S33,45.27,30.44,48.41c-1.2,1.42-1.88,3.21-1.94,5.07c0.1,1.85,0.72,3.64,1.79,5.16
	c1.6,2.56,4.41,5.65,2.84,8.89c-1.15,2.37-4.42,3-6.76,3.22c-2,0.23-3.91,0-5.88,0.11c-2.1,0.18-4.14,0.79-6,1.79
	c-3.3,1.54-5.26,5.01-4.86,8.63c0.25,1.83,1.11,3.52,2.45,4.79c1.29,1.24,3.18,1.9,4.34,3.23c2.27,2.64-2.1,5.93-4,7.23
	c-2.9,2-6.23,4-6.75,7.83c-0.55,4,2.17,7.07,5.44,9c1.61,0.73,2.89,2.03,3.6,3.65c0.62,1.64,0.86,3.39,0.72,5.14
	c-0.16,2-1.51,3-2.78,4.28c-1.42,1.49-2.55,3.23-3.31,5.14c-1.59,4-0.63,8.35,0.93,12.19c0.78,1.92,1.69,3.79,2.58,5.67
	c0.62,1.29,3,0.71,2.8-0.76c-0.23-1.79-0.71-3.56,0.1-5.27c0.84-1.44,2.2-2.51,3.8-3c3.87-1.56,8-2.33,11.64-4.41
	c3.74-1.97,6.44-5.48,7.37-9.61c0.43-2.11,0.47-4.29,0.09-6.41c-0.38-2.01-1.33-3.86-2.73-5.35c-1.21-1.42-2-3.73-1.25-5.56
	c0.78-1.46,2.17-2.5,3.79-2.85c3.29-1,7-1.12,9.66-3.59c3.17-2.94,4.84-8.27,3-12.32c-0.75-1.44-1.94-2.6-3.4-3.31
	c-1.21-0.67-2.72-1.19-3.6-2.31c-2.1-2.65,1.12-4,3.29-4.37c3.07-0.53,6,0.3,9,0.73c3.91,0.56,7.81,0.08,10.23-3.38
	c1.26-1.68,1.48-3.92,0.57-5.81c-1.05-1.76-2.53-3.21-4.31-4.22c-1.59-0.92-3.05-2.06-4.32-3.39c-0.79-1-1.77-3-1-4.16
	s2.39-1.64,3.58-2c1.46-0.4,2.96-0.64,4.47-0.72c4.63-0.34,9.8-0.92,13.7-3.7c3.38-2.42,4.19-7.31,2.48-11
	c-1.06-1.91-2.41-3.64-4-5.14c-1.47-1.61-2.73-3.73-2.16-6c0.52-2.05,2.13-3.64,3.37-5.28c1.4-1.73,2.36-3.76,2.8-5.94
	c0.88-3.94-1.14-7.96-4.82-9.62c-2.19-0.94-4.68-0.94-6.87,0c-2.1,0.94-4.45,1.2-6.71,0.75c-2.53-0.65-4.11-2.19-6-3.91
	C56,6.18,53.87,8.3,55.29,9.62z"/>
<path d="M55.68,9.65c0.72,2.9,1.18,6.42,4.71,7.07c2.15,0.4,7.18-0.38,6.75,3.21c-0.2,1.75-1.76,3.3-2.82,4.6
	c-1.15,1.27-2.03,2.75-2.59,4.37c-1,3.65,0.88,6.73,2.9,9.61c1.24,1.77,4.59,6.35,1.85,8.25c-1.45,1-3.84,0.57-5.51,0.66
	c-2.14,0.09-4.26,0.34-6.36,0.74C50.53,49,47,50.8,44.55,54.32c-2.63,3.87-1.46,8.31-0.35,12.48c0.31,0.92,0.47,1.88,0.47,2.85
	c-0.17,1.01-0.78,1.9-1.67,2.42c-1.41,1.31-3.22,2.1-5.14,2.27c-3.43,0.22-7.27-0.64-10.38,1.23c-2.89,1.75-3.92,5.44-2.36,8.43
	c1.2,2.24,4,3,6.11,4.12c1.65,0.83,5,2.32,4.93,4.58c-0.06,2.54-3.06,3.45-5,3.87c-2.49,0.53-5.15,0.67-7.45,1.86
	c-2.49,1.28-3.36,3.82-3,6.5c0.58,4.05,4.18,6.12,6,9.51c1.69,3.19-1.27,6.45-3.52,8.4s-5.18,3.7-7.24,6.1
	c-2.56,3.02-4.07,6.79-4.3,10.74c-0.09,2.07,0.32,4.12,1.18,6c0.6,1.32,2.54,0.18,2-1.13c-1.85-4.09-0.59-8.85,1.7-12.49
	c1.73-2.75,4.48-4.52,7-6.5s4.82-4.1,5.67-7.13c1.14-4-1.62-6.72-4-9.61c-1.65-2-3.68-5.94-1-8c1.92-1.45,4.86-1.5,7.13-1.95
	c2.45-0.48,4.84-1.26,6.28-3.43c1.41-2.05,1.04-4.83-0.87-6.43c-1.87-1.81-4.35-2.85-6.66-4c-1.12-0.37-2.11-1.06-2.83-2
	c-0.74-1.39-0.62-3.07,0.29-4.35c2.21-3,7.14-1.82,10.3-2c1.7-0.04,3.36-0.52,4.82-1.4c1.5-0.93,3.38-2.22,4-3.92
	s0.14-3.71-0.33-5.48c-0.74-2.16-1.11-4.43-1.09-6.71c0.35-4.61,4.79-7.5,8.87-8.5c2.15-0.49,4.33-0.8,6.53-0.9
	c1.84-0.11,3.85,0.13,5.63-0.37c3.18-0.89,4-4.11,3.09-7c-1.06-3.41-4-5.78-5.2-9.06c-1.49-3.94,1.55-6.56,3.65-9.46
	c1.8-2.5,2.65-6.39-0.6-8.2c-1.28-0.6-2.68-0.92-4.1-0.93c-1.47-0.09-3.1,0.06-4-1.37c-0.62-1.35-1.03-2.79-1.23-4.26
	c-0.22-0.58-0.87-0.88-1.45-0.66c-0.51,0.19-0.82,0.72-0.72,1.26L55.68,9.65z"/>
</svg>
